<?xml version="1.0" encoding="UTF-8"?>
<svg version="1.1" xmlns="http://www.w3.org/2000/svg" width="1080" height="1080">
<path d="M0 0 C356.4 0 712.8 0 1080 0 C1080 356.4 1080 712.8 1080 1080 C723.6 1080 367.2 1080 0 1080 C0 723.6 0 367.2 0 0 Z " fill="#FEFEFE" transform="translate(0,0)"/>
<path d="M0 0 C7.35341523 7.16957985 10.73308631 12.43266514 10.87109375 22.99023438 C10.87302734 24.35631836 10.87302734 24.35631836 10.875 25.75 C10.89949219 26.64912109 10.92398438 27.54824219 10.94921875 28.47460938 C10.98275486 36.20468241 8.79560935 41.74812783 4.75 48.25 C-0.159569 53.02319208 -4.77791159 54.68810677 -11.625 54.875 C-18.18631882 54.6433267 -21.8336981 53.1038019 -26.5 48.4375 C-26.83 57.3475 -27.16 66.2575 -27.5 75.4375 C-32.12 75.4375 -36.74 75.4375 -41.5 75.4375 C-41.5 50.3575 -41.5 25.2775 -41.5 -0.5625 C-36.88 -0.5625 -32.26 -0.5625 -27.5 -0.5625 C-27.17 1.4175 -26.84 3.3975 -26.5 5.4375 C-25.7575 4.65375 -25.015 3.87 -24.25 3.0625 C-17.75760934 -3.13478199 -8.12592169 -3.62764361 0 0 Z " fill="#59FFA7" transform="translate(578.5,434.5625)"/>
<path d="M0 0 C6.5158549 3.90951294 10.80637688 8.9343524 12.90234375 16.2890625 C14.75466887 26.66820658 13.76034857 35.72742512 8.27734375 44.7421875 C4.16016646 50.35271384 -1.94950239 52.86661808 -8.625 53.9375 C-17.08445987 54.77507028 -23.59392487 53.91314496 -30.625 48.9375 C-35.47697597 44.61893365 -39.03644876 39.25576279 -39.92700195 32.72167969 C-40.06262557 30.30712631 -40.08362704 27.91808522 -40.0625 25.5 C-40.08248047 24.69240234 -40.10246094 23.88480469 -40.12304688 23.05273438 C-40.1172054 15.80346895 -37.97458404 10.65807099 -33.25 5.1875 C-24.03598292 -2.71022893 -11.36499884 -5.2920987 0 0 Z " fill="#59FFA7" transform="translate(681.625,435.0625)"/>
<path d="M0 0 C3.1875 2.25 3.1875 2.25 5 4 C3.6302836 7.99500618 1.74277578 10.80009492 -1 14 C-4.00524393 13.35843107 -6.45477382 12.32626249 -9.1875 10.9375 C-14.89423138 8.35207804 -19.94488067 8.08996445 -25.9375 9.875 C-28.13696824 10.94885735 -28.13696824 10.94885735 -30 13 C-30.21676408 16.39597063 -30.08073852 18.75778445 -29 22 C-26.20794599 22.76668294 -23.52665113 23.35692545 -20.6875 23.875 C-1.43760725 27.79779228 -1.43760725 27.79779228 4.125 33.9375 C8.1090527 40.44478608 8.83502625 46.47405825 8 54 C6.40039877 59.90232606 3.05635642 63.25065669 -1.8046875 66.7734375 C-10.2225456 71.47665359 -20.9895061 71.19779532 -30.2734375 69.34765625 C-36.36090747 67.36112894 -42.04978983 64.16130612 -46 59 C-46 54.62548685 -45.59622397 53.99527997 -43 50.75 C-42.443125 50.04359375 -41.88625 49.3371875 -41.3125 48.609375 C-40.879375 48.07828125 -40.44625 47.5471875 -40 47 C-37.26723911 48.26982679 -35.51746982 49.41819282 -33.1875 51.4375 C-28.95289094 55.02471269 -24.53082348 57.12995916 -18.9375 57.375 C-14.73156545 56.9744348 -11.08211939 56.08211939 -8 53 C-7.92820036 51.48071962 -7.91607993 49.95832518 -7.9375 48.4375 C-7.94652344 47.61121094 -7.95554687 46.78492188 -7.96484375 45.93359375 C-7.97644531 45.29550781 -7.98804688 44.65742188 -8 44 C-13.12992117 40.75756625 -17.51394039 39.19896993 -23.4375 38.0625 C-36.97489617 35.13490524 -36.97489617 35.13490524 -41.3203125 29.1953125 C-42.4375 27.3125 -42.4375 27.3125 -44 24 C-44.33 23.34 -44.66 22.68 -45 22 C-45.72601866 14.82312698 -45.4043488 9.79519579 -41 4 C-30.23239229 -6.76760771 -13.05345098 -6.80250262 0 0 Z " fill="#72EEFF" transform="translate(325,419)"/>
<path d="M0 0 C0.74926758 0.00161133 1.49853516 0.00322266 2.27050781 0.00488281 C10.71321855 0.19087774 17.48655193 2.52911514 23.75 8.375 C22.3802836 12.37000618 20.49277578 15.17509492 17.75 18.375 C14.75548302 17.73715446 12.33973215 16.70993592 9.625 15.3125 C3.61603539 12.59557541 -2.09905934 12.21751159 -8.3125 14.5 C-10.45600407 16.31435536 -10.45600407 16.31435536 -11.375 19.25 C-11.54798388 22.50429488 -11.54798388 22.50429488 -9.2578125 24.94140625 C-5.54375992 27.94641243 -2.60643815 28.59780317 2 29.4375 C3.52341604 29.75962703 5.04558553 30.08770949 6.56640625 30.421875 C7.29102051 30.58107422 8.01563477 30.74027344 8.76220703 30.90429688 C16.28941448 32.68671593 21.49762175 35.82937491 25.75 42.375 C27.74954039 48.37362118 28.00468158 55.9649733 25.80859375 61.93359375 C22.38760724 67.60664035 17.78347301 71.65382616 11.44140625 73.83203125 C1.39932312 75.85793772 -10.2491886 75.60035143 -19.25 70.375 C-22.46896907 67.90539562 -25.40704482 65.26709268 -28.25 62.375 C-26.88629701 59.38279732 -25.30091917 57.08473471 -23.125 54.625 C-22.58617187 54.01140625 -22.04734375 53.3978125 -21.4921875 52.765625 C-20.87730469 52.07726562 -20.87730469 52.07726562 -20.25 51.375 C-19.84910156 51.76171875 -19.44820313 52.1484375 -19.03515625 52.546875 C-13.6120958 57.51493945 -7.69592463 61.51569672 -0.125 61.75 C3.81041515 61.36915337 7.01681926 60.61939358 10.75 59.375 C11.86332892 53.62764474 11.86332892 53.62764474 10.875 48 C5.95299505 44.23611386 -0.45361007 43.3194053 -6.375 41.9375 C-14.33084484 39.97633876 -19.44118384 37.10734263 -24.25 30.375 C-26.7649627 25.94387524 -26.89814234 21.34409126 -26.25 16.375 C-24.35145472 9.76613984 -20.16957365 5.68237745 -14.25 2.375 C-9.51680225 0.40620549 -5.07447278 -0.01134214 0 0 Z " fill="#59FFA7" transform="translate(498.25,414.625)"/>
<path d="M0 0 C4.90570824 3.08264099 8.49891818 8.05925455 10.3125 13.5 C10.3125 18.78 10.3125 24.06 10.3125 29.5 C-1.5675 29.5 -13.4475 29.5 -25.6875 29.5 C-23.01622768 39.38927269 -23.01622768 39.38927269 -17.6875 41.5 C-15.00454637 41.81523089 -15.00454637 41.81523089 -12.1875 41.75 C-10.77984375 41.75773437 -10.77984375 41.75773437 -9.34375 41.765625 C-4.44404662 41.27565466 -1.97688018 39.02433591 1.3125 35.5 C4.2825 37.48 7.2525 39.46 10.3125 41.5 C7.60422353 46.91655294 3.44140203 50.90017879 -1.93359375 53.6484375 C-9.5067137 55.99019658 -19.17706453 55.74632219 -26.375 52.375 C-32.76867356 48.53022813 -36.3958343 43.3970212 -38.95703125 36.4765625 C-40.98418349 28.21618814 -41.04341167 19.03448985 -36.9453125 11.42578125 C-28.78998149 -1.06048642 -14.35906061 -6.2213338 0 0 Z " fill="#72EEFF" transform="translate(452.6875,434.5)"/>
<path d="M0 0 C4.62 0 9.24 0 14 0 C14.01458252 1.1960083 14.02916504 2.3920166 14.04418945 3.62426758 C14.10212586 8.05816675 14.17935874 12.49155558 14.26245117 16.92504883 C14.2957225 18.84456098 14.32374754 20.76417148 14.34643555 22.68383789 C14.37994121 25.44199572 14.43225403 28.19925043 14.48828125 30.95703125 C14.49467117 31.81649857 14.5010611 32.67596588 14.50764465 33.56147766 C14.53733589 34.76238289 14.53733589 34.76238289 14.56762695 35.98754883 C14.57873001 36.6914827 14.58983307 37.39541656 14.60127258 38.12068176 C15.1183409 40.55777506 16.07336274 41.46632876 18 43 C22.53179128 43.94200156 26.08214179 43.57366138 30 41.125 C33.60803797 37.29145966 33.21127992 33.73692013 33.31640625 28.7109375 C33.33718735 27.89251373 33.35796844 27.07408997 33.37937927 26.23086548 C33.44484812 23.61233034 33.50374726 20.99369361 33.5625 18.375 C33.60568776 16.60155193 33.64930214 14.82811419 33.69335938 13.0546875 C33.80052676 8.70322954 33.90180169 4.35166923 34 0 C38.62 0 43.24 0 48 0 C48 18.15 48 36.3 48 55 C43.71 55 39.42 55 35 55 C35 52.36 35 49.72 35 47 C34.34 47 33.68 47 33 47 C32.773125 47.5775 32.54625 48.155 32.3125 48.75 C30.33370463 52.14222063 27.49013058 54.25493471 24 56 C18.23886443 56.48539954 12.86664292 56.79998982 7.5 54.5 C2.96895276 49.96895276 -0.22977918 45.61464699 -0.56762695 39.05273438 C-0.56684623 37.23288088 -0.53924493 35.41288992 -0.48828125 33.59375 C-0.48120651 32.6284436 -0.47413177 31.66313721 -0.46684265 30.6685791 C-0.43904686 27.6115687 -0.37633661 24.55644863 -0.3125 21.5 C-0.28739797 19.41669328 -0.26458815 17.3333576 -0.24414062 15.25 C-0.18926877 10.16594792 -0.10309975 5.08329348 0 0 Z " fill="#5BFFA8" transform="translate(707,433)"/>
<path d="M0 0 C0 3.96 0 7.92 0 12 C4.95 12 9.9 12 15 12 C15 15.96 15 19.92 15 24 C10.05 24 5.1 24 0 24 C0.09686684 28.09389873 0.19954872 32.18698762 0.31738281 36.28027344 C0.35569327 37.67308572 0.39054259 39.06599765 0.421875 40.45898438 C0.46747907 42.45986308 0.52651623 44.46042146 0.5859375 46.4609375 C0.63306885 48.26763916 0.63306885 48.26763916 0.68115234 50.11083984 C0.70915226 53.1260018 0.70915226 53.1260018 3 55 C6.89823257 55.21656848 10.25108903 55.03218914 14 54 C14.50615298 55.26839526 15.00469099 56.53983102 15.5 57.8125 C15.7784375 58.52019531 16.056875 59.22789062 16.34375 59.95703125 C17 62 17 62 17 65 C10.56586743 68.59114376 4.26785887 68.84292178 -3 68 C-7.50665768 65.86526742 -10.1741532 63.08177871 -13 59 C-14.18975795 55.43072615 -14.12478155 52.20053028 -14.09765625 48.48828125 C-14.0962413 47.76005661 -14.09482635 47.03183197 -14.09336853 46.28153992 C-14.08777659 43.95848461 -14.07522562 41.63552612 -14.0625 39.3125 C-14.05748396 37.73632952 -14.05292123 36.16015752 -14.04882812 34.58398438 C-14.0378098 30.72261902 -14.02055074 26.86132592 -14 23 C-16.64 23 -19.28 23 -22 23 C-22 19.7 -22 16.4 -22 13 C-19.36 13 -16.72 13 -14 13 C-14 9.37 -14 5.74 -14 2 C-9.126739 0.4087311 -5.19209404 -0.21192221 0 0 Z " fill="#73EEFF" transform="translate(390,421)"/>
<path d="M0 0 C0 4.29 0 8.58 0 13 C5.28 13 10.56 13 16 13 C16 16.3 16 19.6 16 23 C10.72 23 5.44 23 0 23 C0.140618 27.58354827 0.28726678 32.1667655 0.4375 36.75 C0.47681641 38.05195313 0.51613281 39.35390625 0.55664062 40.6953125 C0.59853516 41.94570313 0.64042969 43.19609375 0.68359375 44.484375 C0.72025146 45.63647461 0.75690918 46.78857422 0.79467773 47.97558594 C0.96452174 50.47740224 1.27968475 52.61091168 2 55 C3.41655793 55.0272415 4.83327045 55.04650467 6.25 55.0625 C7.03890625 55.07410156 7.8278125 55.08570313 8.640625 55.09765625 C10.90691002 55.00385306 12.8288895 54.63241063 15 54 C16.42258812 57.82320557 17.24042276 60.91281305 17 65 C11.17066386 68.99725907 4.85920606 68.75263109 -2 68 C-6.32878663 66.74180596 -8.59234933 64.59373003 -11.15917969 60.85522461 C-13.29971786 56.93792271 -13.51893209 53.27642845 -13.390625 48.87890625 C-13.38496521 48.13414536 -13.37930542 47.38938446 -13.37347412 46.62205505 C-13.3512735 44.2681862 -13.3011137 41.9159003 -13.25 39.5625 C-13.22991366 37.95640236 -13.21166664 36.3502806 -13.1953125 34.74414062 C-13.15146309 30.8288271 -13.08255471 26.9146809 -13 23 C-15.64 23 -18.28 23 -21 23 C-21 19.7 -21 16.4 -21 13 C-18.36 13 -15.72 13 -13 13 C-13 9.37 -13 5.74 -13 2 C-8.11126518 0.43560486 -5.39277414 0 0 0 Z " fill="#58FFA7" transform="translate(786,421)"/>
<path d="M0 0 C0.66 0.33 1.32 0.66 2 1 C1.85831863 2.43791516 1.71148957 3.8753237 1.5625 5.3125 C1.48128906 6.11300781 1.40007813 6.91351563 1.31640625 7.73828125 C1 10 1 10 0 13 C-1.10408203 13.02126953 -1.10408203 13.02126953 -2.23046875 13.04296875 C-8.61393963 13.31725944 -8.61393963 13.31725944 -14.125 16.3125 C-17.25273376 20.79558506 -17.18490544 25.04548736 -17.31640625 30.390625 C-17.33718735 31.09523865 -17.35796844 31.79985229 -17.37937927 32.52581787 C-17.44453837 34.76711681 -17.50360248 37.00852864 -17.5625 39.25 C-17.60571726 40.77344897 -17.64933257 42.29688671 -17.69335938 43.8203125 C-17.80093115 47.54676119 -17.9002535 51.2733008 -18 55 C-22.62 55 -27.24 55 -32 55 C-32 37.18 -32 19.36 -32 1 C-27.71 1 -23.42 1 -19 1 C-19 3.64 -19 6.28 -19 9 C-18.34 9 -17.68 9 -17 9 C-16.79375 8.2575 -16.5875 7.515 -16.375 6.75 C-12.93851693 -0.12296613 -6.95884575 -0.84897918 0 0 Z " fill="#59FFA7" transform="translate(634,433)"/>
<path d="M0 0 C4.29 0 8.58 0 13 0 C13 17.82 13 35.64 13 54 C8.71 54 4.42 54 0 54 C0 36.18 0 18.36 0 0 Z " fill="#6FEEFF" transform="translate(345,434)"/>
<path d="M0 0 C3.5898898 1.76107801 5.52102719 3.34540383 7.875 6.5625 C10.21858532 13.72345513 9.69147534 21.18189351 6.9609375 28.18359375 C5.40101259 31.13223231 4.18534091 31.98340184 1 33 C-3.90549559 33.63036022 -7.66170759 33.78067057 -12 31.25 C-15.96715331 26.78695252 -16.36424121 22.98853925 -16.375 17.125 C-16.39949219 16.43019531 -16.42398438 15.73539062 -16.44921875 15.01953125 C-16.48380383 8.89797194 -14.32161304 5.48744254 -10.25 1.125 C-6.85334624 -0.57332688 -3.66761128 -0.62893527 0 0 Z " fill="#FBFFFD" transform="translate(672,444)"/>
<path d="M0 0 C3.16517266 1.51065059 5.79959738 3.24949672 8 6 C9.26945801 9.71960076 9.23853499 13.47431908 9.3125 17.375 C9.34988281 18.66148437 9.38726563 19.94796875 9.42578125 21.2734375 C8.93144851 25.59998277 7.73640049 27.657154 5 31 C0.7567553 33.8288298 -3.01734529 33.65268001 -8 33 C-11.6307371 30.88207002 -13.51391101 28.88967639 -15 25 C-15.24422617 22.32487148 -15.37009454 19.79847611 -15.375 17.125 C-15.39949219 16.43019531 -15.42398438 15.73539062 -15.44921875 15.01953125 C-15.4838112 8.89666771 -13.34625722 5.42716264 -9.1875 1.125 C-5.96860302 -0.53043273 -3.56753756 -0.37553027 0 0 Z " fill="#FCFFFD" transform="translate(566,444)"/>
<path d="M0 0 C3.34265205 1.20706879 3.94704566 1.92056849 6 5 C6.60839155 8.99800164 6.33251303 10.52201252 4 13.875 C-0.16273171 16.82360163 -1.97544571 16.7975483 -7 16 C-9.99097304 13.45767292 -10.84202557 11.8425303 -11.5625 8 C-10.36106636 1.5923539 -6.2562897 -0.93178783 0 0 Z " fill="#75EEFF" transform="translate(354,411)"/>
<path d="M0 0 C2.5 1.625 2.5 1.625 4 4 C4.33 6.31 4.66 8.62 5 11 C-2.26 11 -9.52 11 -17 11 C-17 5.53287126 -16.63055645 4.73140524 -13 1 C-8.64385015 -1.69971472 -4.83602622 -1.20900655 0 0 Z " fill="#FAFEFF" transform="translate(445,444)"/>
</svg>
